<svg width="32" height="32" viewBox="0 0 32 32" fill="none" xmlns="http://www.w3.org/2000/svg">
<path d="M8 17.3333H24C24.7333 17.3333 25.3333 16.7333 25.3333 16C25.3333 15.2667 24.7333 14.6667 24 14.6667H8C7.26667 14.6667 6.66667 15.2667 6.66667 16C6.66667 16.7333 7.26667 17.3333 8 17.3333ZM5.33333 22.6667H21.3333C22.0667 22.6667 22.6667 22.0667 22.6667 21.3333C22.6667 20.6 22.0667 20 21.3333 20H5.33333C4.6 20 4 20.6 4 21.3333C4 22.0667 4.6 22.6667 5.33333 22.6667ZM9.33333 10.6667C9.33333 11.4 9.93333 12 10.6667 12H26.6667C27.4 12 28 11.4 28 10.6667C28 9.93333 27.4 9.33333 26.6667 9.33333H10.6667C9.93333 9.33333 9.33333 9.93333 9.33333 10.6667Z" fill="white"/>
</svg>
