<svg width="32" height="32" viewBox="0 0 32 32" fill="none" xmlns="http://www.w3.org/2000/svg">
<path d="M18.4 6.4C18.4 5.76348 18.1471 5.15303 17.6971 4.70294C17.247 4.25286 16.6365 4 16 4C15.3635 4 14.753 4.25286 14.3029 4.70294C13.8529 5.15303 13.6 5.76348 13.6 6.4H12C12 5.33913 12.4214 4.32172 13.1716 3.57157C13.9217 2.82143 14.9391 2.4 16 2.4C17.0609 2.4 18.0783 2.82143 18.8284 3.57157C19.5786 4.32172 20 5.33913 20 6.4H27.2C27.4122 6.4 27.6157 6.48429 27.7657 6.63431C27.9157 6.78434 28 6.98783 28 7.2C28 7.41217 27.9157 7.61566 27.7657 7.76569C27.6157 7.91571 27.4122 8 27.2 8H26.3136L24.24 25.968C24.1497 26.7478 23.7759 27.4673 23.1897 27.9895C22.6035 28.5116 21.8458 28.8001 21.0608 28.8H10.9392C10.1542 28.8001 9.39646 28.5116 8.81027 27.9895C8.22407 27.4673 7.85028 26.7478 7.76 25.968L5.6848 8H4.8C4.61276 8.00006 4.43143 7.93444 4.28759 7.81458C4.14374 7.69471 4.0465 7.52818 4.0128 7.344L4 7.2C4 6.98783 4.08429 6.78434 4.23431 6.63431C4.38434 6.48429 4.58783 6.4 4.8 6.4H18.4ZM24.7008 8H7.2976L9.3488 25.784C9.39396 26.1741 9.58097 26.5339 9.87423 26.795C10.1675 27.0561 10.5465 27.2002 10.9392 27.2H21.0608C21.4532 27.1999 21.8318 27.0555 22.1248 26.7945C22.4177 26.5334 22.6045 26.1738 22.6496 25.784L24.7008 8ZM13.6 12C13.992 12 14.32 12.248 14.3872 12.5744L14.4 12.7008V22.5008C14.4 22.8864 14.0416 23.2 13.6 23.2C13.208 23.2 12.88 22.952 12.8128 22.6256L12.8 22.4992V12.7024C12.8 12.3152 13.1584 12.0016 13.6 12.0016V12ZM18.4 12C18.792 12 19.12 12.248 19.1872 12.5744L19.2 12.7008V22.5008C19.2 22.8864 18.8416 23.2 18.4 23.2C18.008 23.2 17.68 22.952 17.6128 22.6256L17.6 22.4992V12.7024C17.6 12.3152 17.9584 12.0016 18.4 12.0016V12Z" fill="#E5E5E5"/>
</svg>
