<svg version="1.1" preserveAspectRatio="none" xmlns="http://www.w3.org/2000/svg" width="500" height="500" viewBox="0 0 500 500"><rect width="100%" height="100%" fill="#FFFFFF" fill-opacity="1"/><svg viewBox="157.8078 167.4953 405.0951 50" width="333" height="41.1014598794209" x="83.5px" y="229.4493px" xmlns="http://www.w3.org/2000/svg" xmlns:xlink="http://www.w3.org/1999/xlink" preserveAspectRatio="none"><defs></defs><style>.companyName {fill:#182145;fill-opacity:1;}.icon1 {fill:#182145;fill-opacity:1;}.icon2 {fill:#E35B34;fill-opacity:1;}.icon3 {fill:#E3D454;fill-opacity:1;}.icon3-str {stroke:#E3D454;stroke-opacity:1;}</style><g opacity="1" transform="rotate(0 157.8078 167.4953)">
<svg width="37.7561" height="50" x="157.8078" y="167.4953" version="1.1" preserveAspectRatio="none" viewBox="24 15.569997787475586 52 68.86299896240234">
  <g transform="matrix(1 0 0 1 0 0)" class="icon1"><path d="M73.083,81.433c-1.026,0-1.997-0.444-2.737-1.251c-0.568-0.619-1.643-0.619-2.211,0c-0.391,0.426-0.849,0.743-1.343,0.955  v-4.239c0-0.766-0.576-1.391-1.317-1.481l-0.652-5.148c-0.001-0.006-0.002-0.012-0.002-0.018l-1.255-9.902  c-0.001-0.008-0.002-0.016-0.003-0.023l-1.256-9.906c0-0.002,0-0.004,0-0.006l-0.471-3.713c1.137-0.598,1.922-1.776,1.922-3.146  c0-1.431-0.852-2.66-2.069-3.229v-5.869c1.218-0.568,2.069-1.797,2.069-3.227c0-1.459-0.883-2.714-2.14-3.268  c-0.552-5.375-4.762-9.672-10.096-10.361v-0.531c0-0.828-0.671-1.5-1.5-1.5s-1.5,0.672-1.5,1.5v0.53  c-5.338,0.689-9.561,4.988-10.108,10.368c-1.252,0.555-2.131,1.806-2.131,3.262c0,1.431,0.852,2.659,2.07,3.228v5.867  c-1.219,0.569-2.07,1.798-2.07,3.229c0,1.37,0.785,2.549,1.922,3.146l-3.639,28.717c-0.74,0.092-1.316,0.716-1.316,1.481v4.214  c-0.494-0.201-0.955-0.507-1.343-0.93c-0.284-0.31-0.685-0.486-1.105-0.486h-0.001c-0.42,0-0.821,0.177-1.105,0.487  c-0.738,0.806-1.709,1.25-2.735,1.25c-0.829,0-1.5,0.672-1.5,1.5s0.671,1.5,1.5,1.5c1.391,0,2.716-0.434,3.843-1.241  c1.128,0.808,2.453,1.241,3.844,1.241h0.001c1.392,0,2.716-0.434,3.844-1.241c1.127,0.808,2.452,1.241,3.842,1.241  c0.001,0,0.001,0,0.002,0c1.391,0,2.716-0.434,3.845-1.241c2.254,1.616,5.432,1.615,7.685,0c1.128,0.808,2.454,1.241,3.845,1.241  l0,0c1.391,0,2.715-0.434,3.844-1.241c1.127,0.808,2.452,1.241,3.843,1.241h0.001c1.391,0,2.716-0.434,3.844-1.241  c1.127,0.808,2.453,1.241,3.843,1.241c0.829,0,1.5-0.672,1.5-1.5S73.912,81.433,73.083,81.433z M62.128,72.872l0.319,2.525h-4.693  L62.128,72.872z M61.719,69.645l-9.965,5.753H39.309l21.563-12.448L61.719,69.645z M50.022,20.491c4.267,0,7.823,3.101,8.536,7.166  H41.483C42.196,23.592,45.754,20.491,50.022,20.491z M39.854,30.657h20.334c0.314,0,0.57,0.256,0.57,0.571  c0,0.313-0.256,0.569-0.57,0.569H39.854c-0.314,0-0.57-0.256-0.57-0.569C39.283,30.913,39.539,30.657,39.854,30.657z M58.688,34.798  v5.184h-2.438v-5.184H58.688z M53.251,34.798v5.184h-6.46v-5.184H53.251z M43.791,34.798v5.184h-2.438v-5.184H43.791z   M39.854,42.981h20.334c0.314,0,0.57,0.256,0.57,0.571c0,0.313-0.256,0.569-0.57,0.569H39.854c-0.314,0-0.57-0.256-0.57-0.569  C39.283,43.237,39.539,42.981,39.854,42.981z M50.021,52.491c-2.551,0-4.626,2.076-4.626,4.629v0.653l-6.008,3.469l0.981-7.75  l11.032-6.37h7.465l0.34,2.679l-6.365,3.675C52.057,52.868,51.086,52.491,50.021,52.491z M51.648,57.12v2.704h-3.254V57.12  c0-0.898,0.729-1.629,1.626-1.629C50.918,55.491,51.648,56.222,51.648,57.12z M40.842,49.755l0.334-2.633h4.226L40.842,49.755z   M38.913,64.979l6.481-3.742v0.087c0,0.828,0.672,1.5,1.5,1.5h6.254c0.828,0,1.5-0.672,1.5-1.5V57.12  c0-0.394-0.064-0.77-0.157-1.135l5.122-2.958l0.849,6.694l-22.53,13.007L38.913,64.979z M63.792,81.035  c-0.413-0.21-0.8-0.488-1.134-0.854c-0.283-0.31-0.685-0.486-1.105-0.486l0,0c-0.42,0-0.821,0.177-1.105,0.486  c-1.48,1.613-3.999,1.612-5.479,0c-0.284-0.31-0.686-0.486-1.105-0.486c0,0,0,0-0.001,0c-0.421,0-0.821,0.177-1.106,0.487  c-0.736,0.806-1.708,1.25-2.734,1.25c-1.025,0-1.997-0.444-2.735-1.25c-0.284-0.311-0.686-0.487-1.106-0.487l0,0  c-0.42,0-0.821,0.177-1.105,0.486c-0.74,0.807-1.713,1.251-2.739,1.251c-0.001,0-0.001,0-0.001,0c-1.026,0-1.998-0.444-2.736-1.251  c-0.285-0.31-0.686-0.486-1.106-0.486s-0.821,0.177-1.106,0.486c-0.332,0.362-0.721,0.631-1.135,0.831v-2.615h27.542V81.035z   M67.535,32.795c0.254,0,0.512-0.064,0.748-0.201l4.7-2.714c0.718-0.414,0.964-1.331,0.549-2.049  c-0.414-0.718-1.33-0.964-2.049-0.549l-4.7,2.714c-0.717,0.414-0.963,1.331-0.549,2.049C66.512,32.526,67.016,32.795,67.535,32.795z   M74.5,35.891l-5.428-0.002l0,0c-0.828,0-1.5,0.671-1.5,1.499c0,0.829,0.671,1.501,1.5,1.501l5.428,0.002l0,0  c0.828,0,1.5-0.671,1.5-1.499C76,36.563,75.329,35.891,74.5,35.891z M66.783,44.783l4.7,2.714c0.236,0.137,0.494,0.201,0.749,0.201  c0.518,0,1.021-0.269,1.3-0.75c0.415-0.718,0.169-1.635-0.549-2.049l-4.7-2.714c-0.717-0.414-1.635-0.168-2.049,0.549  C65.82,43.452,66.066,44.369,66.783,44.783z M31.717,42.186l-4.7,2.714c-0.718,0.414-0.964,1.331-0.549,2.049  c0.278,0.481,0.782,0.75,1.3,0.75c0.255,0,0.513-0.064,0.749-0.201l4.7-2.714c0.717-0.414,0.963-1.331,0.549-2.049  C33.352,42.018,32.436,41.771,31.717,42.186z M30.928,38.891L30.928,38.891c0.828,0,1.5-0.671,1.5-1.499  c0-0.829-0.671-1.501-1.5-1.501L25.5,35.889l0,0c-0.828,0-1.5,0.671-1.5,1.499c0,0.829,0.671,1.501,1.5,1.501L30.928,38.891z   M27.017,29.88l4.7,2.714c0.236,0.137,0.494,0.201,0.748,0.201c0.52,0,1.023-0.269,1.301-0.75c0.414-0.718,0.168-1.635-0.549-2.049  l-4.7-2.714c-0.717-0.415-1.634-0.169-2.049,0.549S26.299,29.466,27.017,29.88z"></path></g>
</svg>
</g><g opacity="1" transform="rotate(0 215.5639 167.4953)">
<svg width="347.339" height="50" x="215.5639" y="167.4953" version="1.1" preserveAspectRatio="none" viewBox="1.56 -28.48 201.16 28.96">
  <g transform="matrix(1 0 0 1 0 0)" class="companyName"><path id="id-D6z1nYkh8" d="M16.72 0.48Q12.44 0.48 8.98-1.38Q5.52-3.24 3.54-6.54Q1.56-9.84 1.56-14L1.56-14Q1.56-18.16 3.54-21.46Q5.52-24.76 8.98-26.62Q12.44-28.48 16.76-28.48L16.76-28.48Q20.40-28.48 23.34-27.20Q26.28-25.92 28.28-23.52L28.28-23.52L24.12-19.68Q21.28-22.96 17.08-22.96L17.08-22.96Q14.48-22.96 12.44-21.82Q10.40-20.68 9.26-18.64Q8.12-16.60 8.12-14L8.12-14Q8.12-11.40 9.26-9.36Q10.40-7.32 12.44-6.18Q14.48-5.04 17.08-5.04L17.08-5.04Q21.28-5.04 24.12-8.36L24.12-8.36L28.28-4.52Q26.28-2.08 23.32-0.80Q20.36 0.48 16.72 0.48L16.72 0.48Z M45.60 0.48Q41.24 0.48 37.74-1.40Q34.24-3.28 32.26-6.58Q30.28-9.88 30.28-14L30.28-14Q30.28-18.12 32.26-21.42Q34.24-24.72 37.74-26.60Q41.24-28.48 45.60-28.48L45.60-28.48Q49.96-28.48 53.44-26.60Q56.92-24.72 58.92-21.42Q60.92-18.12 60.92-14L60.92-14Q60.92-9.88 58.92-6.58Q56.92-3.28 53.44-1.40Q49.96 0.48 45.60 0.48L45.60 0.48ZM45.60-5.04Q48.08-5.04 50.08-6.18Q52.08-7.32 53.22-9.36Q54.36-11.40 54.36-14L54.36-14Q54.36-16.60 53.22-18.64Q52.08-20.68 50.08-21.82Q48.08-22.96 45.60-22.96L45.60-22.96Q43.12-22.96 41.12-21.82Q39.12-20.68 37.98-18.64Q36.84-16.60 36.84-14L36.84-14Q36.84-11.40 37.98-9.36Q39.12-7.32 41.12-6.18Q43.12-5.04 45.60-5.04L45.60-5.04Z M78.24 0.48Q72.24 0.48 68.90-2.84Q65.56-6.16 65.56-12.32L65.56-12.32L65.56-28L72.04-28L72.04-12.56Q72.04-5.04 78.28-5.04L78.28-5.04Q81.32-5.04 82.92-6.86Q84.52-8.68 84.52-12.56L84.52-12.56L84.52-28L90.92-28L90.92-12.32Q90.92-6.16 87.58-2.84Q84.24 0.48 78.24 0.48L78.24 0.48Z M116.60-28L123-28L123 0L117.68 0L103.72-17L103.72 0L97.32 0L97.32-28L102.68-28L116.60-11L116.60-28Z M135.44 0L135.44-22.72L126.48-22.72L126.48-28L150.88-28L150.88-22.72L141.92-22.72L141.92 0L135.44 0Z M151.68-8.76L151.68-13.76L163-13.76L163-8.76L151.68-8.76Z M168.36 0L168.36-28L174.84-28L174.84 0L168.36 0Z M187.28 0L187.28-22.72L178.32-22.72L178.32-28L202.72-28L202.72-22.72L193.76-22.72L193.76 0L187.28 0Z"/></g>
</svg>
</g></svg></svg>